<svg width="82" height="58" viewBox="0 0 82 58" fill="none" xmlns="http://www.w3.org/2000/svg">
<path d="M71.844 7.34667C66.2018 2.70667 59.4312 0.386667 52.2844 0L51.156 1.16C57.5505 2.70667 63.1927 5.8 68.4587 10.0533C62.0642 6.57333 54.9174 4.25333 47.3945 3.48C45.1376 3.09333 43.2569 3.09333 41 3.09333C38.7431 3.09333 36.8624 3.09333 34.6055 3.48C27.0826 4.25333 19.9358 6.57333 13.5413 10.0533C18.8073 5.8 24.4495 2.70667 30.844 1.16L29.7156 0C22.5688 0.386667 15.7982 2.70667 10.156 7.34667C3.76147 19.72 0.376147 33.64 0 47.9467C5.6422 54.1333 13.5413 58 21.8165 58C21.8165 58 24.4495 54.9067 26.3303 52.2C21.4404 51.04 16.9266 48.3333 13.9174 44.08C16.5505 45.6267 19.1835 47.1733 21.8165 48.3333C25.2018 49.88 28.5872 50.6533 31.9725 51.4267C34.9817 51.8133 37.9908 52.2 41 52.2C44.0092 52.2 47.0183 51.8133 50.0275 51.4267C53.4128 50.6533 56.7982 49.88 60.1835 48.3333C62.8165 47.1733 65.4495 45.6267 68.0826 44.08C65.0734 48.3333 60.5596 51.04 55.6697 52.2C57.5505 54.9067 60.1835 58 60.1835 58C68.4587 58 76.3578 54.1333 82 47.9467C81.6238 33.64 78.2385 19.72 71.844 7.34667ZM28.5872 40.9867C24.8257 40.9867 21.4404 37.5067 21.4404 33.2533C21.4404 29 24.8257 25.52 28.5872 25.52C32.3486 25.52 35.7339 29 35.7339 33.2533C35.7339 37.5067 32.3486 40.9867 28.5872 40.9867ZM53.4128 40.9867C49.6514 40.9867 46.2661 37.5067 46.2661 33.2533C46.2661 29 49.6514 25.52 53.4128 25.52C57.1743 25.52 60.5596 29 60.5596 33.2533C60.5596 37.5067 57.1743 40.9867 53.4128 40.9867Z" fill="url(#paint0_linear_303_4925)"/>
<defs>
<linearGradient id="paint0_linear_303_4925" x1="41" y1="0" x2="41" y2="58" gradientUnits="userSpaceOnUse">
<stop stop-color="#A1AA8B"/>
<stop offset="1" stop-color="#E3DFC4"/>
</linearGradient>
</defs>
</svg>
