<svg width="53" height="53" viewBox="0 0 53 53" fill="none" xmlns="http://www.w3.org/2000/svg">
<path d="M36.5287 52.8571H16.3289C11.9998 52.8521 7.84955 51.1302 4.7884 48.069C1.72725 45.0079 0.00498377 40.8575 0 36.5284V16.3287C0.00498377 11.9996 1.72725 7.84922 4.7884 4.78807C7.84955 1.72692 11.9998 0.00498377 16.3289 0H36.5287C40.8578 0.00498377 45.008 1.72692 48.0692 4.78807C51.1303 7.84922 52.8519 11.9996 52.8569 16.3287V36.5284C52.8519 40.8575 51.1303 45.0079 48.0692 48.069C45.008 51.1302 40.8578 52.8521 36.5287 52.8571ZM16.3289 5.89123C13.5616 5.89408 10.9084 6.99466 8.95157 8.95144C6.99478 10.9082 5.89394 13.5614 5.89109 16.3287V36.5284C5.89394 39.2957 6.99478 41.9489 8.95157 43.9057C10.9084 45.8625 13.5616 46.963 16.3289 46.9659H36.5287C39.296 46.963 41.9492 45.8625 43.906 43.9057C45.8628 41.9489 46.963 39.2957 46.9658 36.5284V16.3287C46.963 13.5614 45.8628 10.9082 43.906 8.95144C41.9492 6.99466 39.296 5.89408 36.5287 5.89123H16.3289Z" fill="url(#paint0_linear_303_4449)"/>
<path d="M26.4377 39.936C23.7657 39.9366 21.1537 39.1447 18.9317 37.6606C16.7097 36.1765 14.9777 34.0667 13.9548 31.5983C12.9319 29.1298 12.6641 26.4134 13.1851 23.7926C13.706 21.1718 14.9921 18.7644 16.8813 16.8748C18.7705 14.9852 21.1782 13.6983 23.7989 13.1768C26.4196 12.6553 29.1357 12.9227 31.6044 13.9451C34.0731 14.9675 36.183 16.6991 37.6676 18.9208C39.1521 21.1424 39.9446 23.7545 39.9446 26.4265C39.941 30.0079 38.5172 33.4417 35.985 35.9743C33.4528 38.507 30.0191 39.9318 26.4377 39.936ZM26.4377 18.2218C24.8142 18.2213 23.2273 18.7023 21.8772 19.6039C20.5271 20.5055 19.4744 21.7873 18.8529 23.2871C18.2313 24.787 18.0687 26.4374 18.3853 28.0297C18.7019 29.6221 19.4834 31.0847 20.6314 32.2327C21.7794 33.3807 23.2423 34.1625 24.8346 34.4791C26.4269 34.7957 28.0772 34.6329 29.577 34.0114C31.0768 33.3898 32.3591 32.3375 33.2608 30.9873C34.1624 29.6372 34.6431 28.05 34.6426 26.4265C34.6397 24.2514 33.7743 22.1661 32.2362 20.6281C30.6982 19.09 28.6129 18.2247 26.4377 18.2218Z" fill="url(#paint1_linear_303_4449)"/>
<path d="M40.6198 14.4193C41.8811 14.4193 42.9037 13.3968 42.9037 12.1354C42.9037 10.8741 41.8811 9.85156 40.6198 9.85156C39.3585 9.85156 38.3359 10.8741 38.3359 12.1354C38.3359 13.3968 39.3585 14.4193 40.6198 14.4193Z" fill="url(#paint2_linear_303_4449)"/>
<defs>
<linearGradient id="paint0_linear_303_4449" x1="26.4285" y1="0" x2="26.4285" y2="52.8571" gradientUnits="userSpaceOnUse">
<stop stop-color="#A1AA8B"/>
<stop offset="1" stop-color="#E3DFC4"/>
</linearGradient>
<linearGradient id="paint1_linear_303_4449" x1="26.4352" y1="12.917" x2="26.4352" y2="39.936" gradientUnits="userSpaceOnUse">
<stop stop-color="#A1AA8B"/>
<stop offset="1" stop-color="#E3DFC4"/>
</linearGradient>
<linearGradient id="paint2_linear_303_4449" x1="40.6198" y1="9.85156" x2="40.6198" y2="14.4193" gradientUnits="userSpaceOnUse">
<stop stop-color="#A1AA8B"/>
<stop offset="1" stop-color="#E3DFC4"/>
</linearGradient>
</defs>
</svg>
