<svg width="88" height="50" viewBox="0 0 88 50" fill="none" xmlns="http://www.w3.org/2000/svg">
<path d="M82.875 3.58792C83.1081 3.57914 83.3062 3.59646 83.5189 3.70192C84.6258 4.25211 85.2181 6.01955 85.5785 7.1256C88.1164 14.9112 88.0273 29.2478 86.6669 37.4005C86.302 39.5887 85.8422 41.9925 84.8206 43.9832C84.4615 44.6825 83.9978 45.3875 83.2132 45.6371C82.9712 45.6492 82.7699 45.6257 82.5509 45.5136C81.4185 44.934 80.7632 42.9452 80.4065 41.7875C77.9679 33.8604 78.0444 19.9307 79.4372 11.7011C79.8053 9.52646 80.2696 7.09669 81.3198 5.13297C81.6752 4.46801 82.121 3.81713 82.875 3.58792Z" fill="url(#paint0_linear_303_4921)"/>
<path d="M64.1432 1.20839C66.2207 1.06108 68.2752 2.09039 69.8037 3.41902C74.6172 7.60235 76.5513 15.6296 76.9602 21.7178C77.4525 29.0388 76.0609 38.8359 71.0507 44.558C69.3872 46.4577 67.3097 47.8366 64.7432 48.0091C64.7209 48.0111 64.6979 48.0136 64.675 48.0149C62.6505 48.1664 60.5829 47.0965 59.0994 45.8075C54.3265 41.6616 52.3861 33.7212 51.9555 27.6831C51.4312 20.3323 52.8053 10.4631 57.8206 4.70295C59.4765 2.80113 61.5744 1.38589 64.1432 1.20839Z" fill="url(#paint1_linear_303_4921)"/>
<path d="M24.4243 0.0337884L24.4723 0.0309216C30.7691 -0.309293 37.2227 2.18061 41.873 6.37871C46.6729 10.7118 49.6118 16.9081 49.9278 23.3671C50.2468 29.8877 47.9635 36.3148 43.5693 41.1494C39.1044 46.0618 32.9237 48.8806 26.3107 49.1913L26.2661 49.1939C20.0166 49.541 13.5134 47.0527 8.89372 42.8849C4.06049 38.5244 1.12507 32.3548 0.795187 25.8532C0.466824 19.3817 2.75645 12.9251 7.11113 8.12297C11.6037 3.16883 17.7649 0.358782 24.4243 0.0337884Z" fill="url(#paint2_linear_303_4921)"/>
<defs>
<linearGradient id="paint0_linear_303_4921" x1="83.0371" y1="3.58594" x2="83.0371" y2="45.64" gradientUnits="userSpaceOnUse">
<stop stop-color="#A1AA8B"/>
<stop offset="1" stop-color="#E3DFC4"/>
</linearGradient>
<linearGradient id="paint1_linear_303_4921" x1="64.4521" y1="1.19434" x2="64.4521" y2="48.0292" gradientUnits="userSpaceOnUse">
<stop stop-color="#A1AA8B"/>
<stop offset="1" stop-color="#E3DFC4"/>
</linearGradient>
<linearGradient id="paint2_linear_303_4921" x1="25.3607" y1="0" x2="25.3607" y2="49.226" gradientUnits="userSpaceOnUse">
<stop stop-color="#A1AA8B"/>
<stop offset="1" stop-color="#E3DFC4"/>
</linearGradient>
</defs>
</svg>
