<svg width="58" height="49" viewBox="0 0 58 49" fill="none" xmlns="http://www.w3.org/2000/svg">
<path d="M53.5048 0.410262C39.2824 5.99563 25.0244 11.4956 10.7801 17.0231C7.8535 18.1583 4.91594 19.2633 2.01397 20.4564C1.06399 20.8477 -0.0502614 21.3354 0.00175503 22.6112C0.0537715 23.9118 1.1954 24.1708 2.20561 24.4877C6.1835 25.7414 10.1614 26.9896 14.1229 28.2902C14.8949 28.5437 15.4835 28.4748 16.1515 28.0285C17.931 26.8381 19.7516 25.7083 21.5585 24.5621C29.5526 19.4865 37.5439 14.4054 45.5463 9.34354C46.1814 8.94124 47.104 8.24961 47.6214 8.94399C48.1662 9.6742 47.0602 10.1426 46.5729 10.5835C38.8197 17.6513 31.0391 24.6916 23.2586 31.7291C22.8561 32.0928 22.67 32.4731 22.6316 33.0242C22.3907 36.5815 22.0814 40.1361 21.876 43.6961C21.835 44.4015 21.3258 45.4514 22.1498 45.8041C22.993 46.165 23.7486 45.3632 24.3728 44.757C26.1989 42.9852 28.0934 41.2686 29.7908 39.3783C30.6832 38.3863 31.2417 38.6701 32.0795 39.2984C34.1875 40.88 36.3448 42.3983 38.4802 43.9441C40.2543 45.2916 42.0146 46.6638 43.8106 47.9837C46.3347 49.8381 48.3415 49.1272 49.0642 46.0769C49.5981 43.8284 50.0005 41.5496 50.4632 39.2846C50.5508 39.0228 50.6712 38.7693 50.7178 38.5021C51.7964 32.3573 53.3268 26.309 54.5643 20.2001C55.6703 14.7415 56.8448 9.29394 57.8851 3.82155C58.5558 0.297289 56.185 -0.647844 53.4993 0.407506L53.5048 0.410262Z" fill="url(#paint0_linear_303_4865)"/>
<defs>
<linearGradient id="paint0_linear_303_4865" x1="29" y1="0" x2="29" y2="49" gradientUnits="userSpaceOnUse">
<stop stop-color="#A1AA8B"/>
<stop offset="1" stop-color="#E3DFC4"/>
</linearGradient>
</defs>
</svg>
