<svg width="54" height="51" viewBox="0 0 54 51" fill="none" xmlns="http://www.w3.org/2000/svg">
<path d="M0.544918 50.1873L0.852664 49.852C1.15317 49.5247 1.44425 49.2072 1.72887 48.8969C2.37824 48.1888 2.99395 47.5174 3.6111 46.8482C4.13036 46.2846 4.6496 45.7209 5.16885 45.1572C10.3466 39.5365 15.5245 33.9156 20.7111 28.3036C20.8546 28.1479 20.8931 28.0652 20.898 28.0055C20.9026 27.9496 20.8811 27.8625 20.7511 27.6887L20.751 27.6886C15.2349 20.2992 9.73043 12.9029 4.22577 5.50635C3.27621 4.23042 2.32663 2.95449 1.377 1.67858C1.31279 1.59256 1.24809 1.50099 1.18551 1.41243C1.14554 1.35587 1.10644 1.30053 1.06889 1.24865L0.989708 1.13925L1.0616 1.02492C1.1076 0.951769 1.16512 0.894779 1.23459 0.856297C1.30342 0.818175 1.37256 0.804543 1.43254 0.801022C1.49012 0.797641 1.54474 0.803474 1.5835 0.807861C1.58824 0.808397 1.59274 0.80891 1.59702 0.809398C1.63324 0.813525 1.65421 0.815915 1.67357 0.815915V1.01591M0.544918 50.1873L16.9358 1.39763M0.544918 50.1873H1H1.00106C1.41854 50.1873 1.82031 50.1851 2.21105 50.183C3.14192 50.178 4.01019 50.1734 4.87912 50.1989L4.885 49.999M0.544918 50.1873L52.893 49.3798M1.67357 1.01591L1.67339 0.815915C3.45076 0.814339 5.22798 0.813779 7.00519 0.813219C10.0515 0.81226 13.0979 0.8113 16.1448 0.805223L16.1452 0.805222C16.3386 0.805222 16.5147 0.832319 16.6775 0.911135C16.8411 0.990298 16.9746 1.11349 17.0966 1.27861M1.67357 1.01591C1.642 1.01591 1.60885 1.01209 1.57502 1.0082C1.45491 0.994359 1.32639 0.979552 1.23091 1.13139C1.27154 1.18753 1.31168 1.24436 1.3519 1.30132C1.4128 1.38754 1.47393 1.47409 1.53737 1.55908C2.48708 2.83509 3.43673 4.11112 4.38637 5.38714C9.89098 12.7836 15.3953 20.1798 20.9113 27.5689C21.1847 27.9346 21.1518 28.1206 20.8581 28.4393C15.6706 34.0522 10.4918 39.674 5.31313 45.2958C4.7948 45.8585 4.27646 46.4212 3.75812 46.9838C3.14092 47.6531 2.52527 48.3244 1.87572 49.0327C1.64965 49.2792 1.41946 49.5302 1.18368 49.7871C1.1231 49.7872 1.06223 49.7873 1.00106 49.7873H1V49.9873L1.00106 49.9882L1.14734 50.1225C1.18898 50.0771 1.23045 50.032 1.27174 49.987C1.59086 49.9863 1.90169 49.9847 2.20624 49.983C3.13876 49.9781 4.01241 49.9734 4.885 49.999M1.67357 1.01591C3.45069 1.01434 5.2278 1.01378 7.00497 1.01322C10.0515 1.01226 13.0981 1.0113 16.1452 1.00522L30.2263 18.2742M17.0966 1.27861C17.0966 1.27869 17.0967 1.27876 17.0967 1.27884L16.9358 1.39763M17.0966 1.27861C17.0965 1.27857 17.0965 1.27852 17.0965 1.27848L16.9358 1.39763M17.0966 1.27861C19.109 3.9918 21.127 6.70395 23.1453 9.41628C25.2995 12.3114 27.4539 15.2068 29.6017 18.1038M16.9358 1.39763C18.9494 4.11243 20.9673 6.82424 22.9851 9.53606C25.1388 12.4304 27.2924 15.3248 29.441 18.2229M29.6017 18.1038C29.6017 18.1038 29.6017 18.1037 29.6017 18.1037L29.441 18.2229M29.6017 18.1038C29.6727 18.1995 29.7259 18.2628 29.7698 18.3028C29.791 18.322 29.8063 18.3324 29.8166 18.3379C29.8192 18.3393 29.8214 18.3404 29.8231 18.3411C29.8247 18.3418 29.8259 18.3422 29.8269 18.3425C29.8288 18.3432 29.8297 18.3433 29.8299 18.3433L29.8315 18.3433C29.8326 18.3432 29.8349 18.3429 29.8388 18.3417C29.8469 18.3393 29.8615 18.3333 29.8837 18.3189C29.9302 18.2887 29.9926 18.2332 30.0789 18.1391L30.2263 18.2742M29.6017 18.1038L29.441 18.2229M29.441 18.2229L30.2263 18.2742M30.2263 18.2742C33.3535 14.8626 36.4882 11.4582 39.6229 8.05362C41.654 5.84776 43.6851 3.64186 45.7142 1.43398C45.9876 1.13674 46.2579 0.993461 46.6718 1.00415M30.2263 18.2742L30.0789 18.1391C33.2061 14.7275 36.341 11.3228 39.4757 7.91822C41.5069 5.71226 43.538 3.50634 45.5669 1.29865L45.567 1.29857C45.7148 1.13785 45.8712 1.0085 46.0558 0.922357C46.2418 0.83552 46.4445 0.798213 46.677 0.80422L46.6718 1.00415M30.2263 18.2742L46.6718 1.00415M46.6718 1.00415C47.4269 1.02368 48.183 1.0207 48.9391 1.01773C49.3007 1.0163 49.6623 1.01488 50.0237 1.01591M50.0237 1.01591C50.1337 1.01591 50.2433 1.0236 50.3824 1.03338C50.418 0.994328 50.4538 0.955013 50.4899 0.915416L50.6377 1.05013L50.6261 1.24979C50.5671 1.24637 50.5139 1.24294 50.4651 1.23964C50.3549 1.36078 50.2469 1.47946 50.1408 1.59619C49.747 2.02917 49.3778 2.43513 49.0054 2.83893C48.4246 3.46933 47.8438 4.09973 47.263 4.73013C42.2788 10.1398 37.295 15.5492 32.2992 20.9483C31.9438 21.3322 31.9193 21.5642 32.2428 21.9961C38.4638 30.326 44.6708 38.6665 50.8773 47.0063C51.4959 47.8375 52.1144 48.6686 52.7329 49.4997M50.0237 1.01591V0.815915C50.0239 0.815915 50.0241 0.815915 50.0243 0.815915C50.1412 0.815943 50.262 0.824402 50.4068 0.834552C50.4805 0.839714 50.5604 0.845314 50.6493 0.850465L51.0681 0.874746L50.7855 1.18484C50.6149 1.37214 50.45 1.55338 50.2892 1.73022C49.8952 2.16343 49.5253 2.57018 49.1524 2.97452C48.572 3.60449 47.9916 4.23446 47.4112 4.86444C42.4267 10.2745 37.4423 15.6845 32.446 21.0841L32.4459 21.0842C32.2739 21.27 32.2215 21.3799 32.216 21.4668C32.2106 21.5524 32.2476 21.669 32.4029 21.8763L32.403 21.8765C38.6251 30.2077 44.833 38.5495 51.0404 46.8904C51.6579 47.7203 52.2755 48.5501 52.893 49.3798M50.0237 1.01591L52.893 49.3798M52.7329 49.4997C52.7936 49.5808 52.8498 49.6654 52.9065 49.7507C52.9372 49.7971 52.9682 49.8437 53 49.89C52.9642 49.9245 52.9277 49.9486 52.8908 49.9651L52.8352 50.0033C52.8315 49.9978 52.8278 49.9924 52.8241 49.9871C52.7478 50.0042 52.6708 49.9968 52.5961 49.9895C52.5565 49.9857 52.5175 49.9819 52.4797 49.9819M52.7329 49.4997L52.8934 49.3803C52.8932 49.3801 52.8931 49.38 52.893 49.3798M52.7329 49.4997L52.893 49.3798M52.4797 49.9819C50.8137 49.9834 49.1478 49.9839 47.4818 49.9843C44.3593 49.9852 41.2369 49.986 38.1144 49.9937C37.742 49.9937 37.5068 49.8921 37.277 49.5831C33.351 44.29 29.4154 39.0042 25.4798 33.7186C24.9022 32.9429 24.3246 32.1671 23.7471 31.3914C23.637 31.2434 23.5252 31.0972 23.4033 30.9378C23.4011 30.935 23.399 30.9322 23.3968 30.9294C23.3509 30.9791 23.3049 31.0288 23.2591 31.0785M52.4797 49.9819V50.1819C52.4797 50.1819 52.4798 50.1819 52.4798 50.1819M52.4797 49.9819L52.4798 50.1819M23.2591 31.0785C23.2544 31.0724 23.2497 31.0663 23.2451 31.0601C23.2096 31.0138 23.1733 30.9663 23.1358 30.9172C22.8004 31.2803 22.4673 31.6404 22.1358 31.9988C21.5282 32.6558 20.9259 33.3069 20.325 33.9597C19.5074 34.8473 18.6898 35.7349 17.8722 36.6224C13.9202 40.9125 9.96859 45.2022 6.0257 49.5008C5.69796 49.8579 5.37341 50.014 4.885 49.999M23.2591 31.0785C23.3753 31.2304 23.4816 31.3696 23.5866 31.5107L23.5867 31.5108C24.1647 32.2872 24.7428 33.0636 25.3208 33.84C29.2559 39.1249 33.191 44.4099 37.1164 49.7022L37.1165 49.7025C37.245 49.8752 37.3849 50.003 37.5561 50.0847C37.7262 50.166 37.9106 50.1937 38.1144 50.1937H38.1149C41.2373 50.186 44.3595 50.1852 47.4819 50.1843C49.1478 50.1839 50.8137 50.1834 52.4798 50.1819M23.2591 31.0785C22.9316 31.433 22.6064 31.7846 22.2828 32.1345C21.6751 32.7915 21.0731 33.4424 20.4721 34.0951L20.4721 34.0951C19.6552 34.982 18.8383 35.8688 18.0214 36.7556C14.0688 41.0465 10.1165 45.3368 6.17309 49.636L6.17305 49.636C5.9968 49.828 5.81233 49.9759 5.59716 50.072C5.38107 50.1685 5.14673 50.2071 4.87887 50.1989L4.885 49.999M52.4798 50.1819C52.5092 50.1819 52.5406 50.1851 52.5876 50.1896C52.6306 50.1938 52.6859 50.1989 52.744 50.1972C52.8693 50.1936 53.0102 50.1583 53.139 50.0337L53.2607 49.9161L53.1648 49.7766C53.1369 49.7361 53.1079 49.6924 53.0779 49.6473C53.0191 49.5587 52.9567 49.465 52.893 49.3798M15.059 4.86469C16.0741 6.22993 17.089 7.59528 18.1039 8.96063C20.4083 12.0606 22.7126 15.1605 25.0189 18.2589C28.5311 22.9771 32.0443 27.6949 35.5575 32.4128C38.1381 35.8782 40.7187 39.3437 43.2989 42.8093L43.299 42.8093C43.9621 43.6994 44.624 44.5906 45.2847 45.4799C45.5134 45.7878 45.742 46.0954 45.9703 46.4027C45.9437 46.3999 45.9103 46.3968 45.878 46.3968H45.8776C45.1307 46.3983 44.3833 46.3982 43.6357 46.398C42.3265 46.3978 41.0166 46.3975 39.7071 46.4064C39.5695 46.4073 39.4741 46.3874 39.3972 46.3498C39.3206 46.3125 39.2461 46.2497 39.1635 46.1385L39.0029 46.2578L39.1635 46.1385C31.7892 36.2193 24.4089 26.3036 17.0288 16.3884C16.2897 15.3954 15.5507 14.4025 14.8117 13.4096L14.8117 13.4096C12.6676 10.5292 10.5235 7.64885 8.38272 4.76641C8.34423 4.71431 8.30999 4.67438 8.28047 4.63994C8.26011 4.6162 8.242 4.59507 8.22627 4.57436C8.67595 4.57446 9.1244 4.57477 9.57186 4.57508C11.2692 4.57625 12.9524 4.57741 14.6355 4.56685L14.6356 4.56685C14.7435 4.56609 14.809 4.59559 14.8633 4.63815C14.9273 4.68831 14.9804 4.7591 15.059 4.86469ZM15.059 4.86469L15.2194 4.74535L15.059 4.86469Z" fill="url(#paint0_linear_303_4453)" stroke="url(#paint1_linear_303_4453)" stroke-width="0.4"/>
<defs>
<linearGradient id="paint0_linear_303_4453" x1="27" y1="1" x2="27" y2="50" gradientUnits="userSpaceOnUse">
<stop stop-color="#A1AA8B"/>
<stop offset="1" stop-color="#E3DFC4"/>
</linearGradient>
<linearGradient id="paint1_linear_303_4453" x1="27" y1="1" x2="27" y2="50" gradientUnits="userSpaceOnUse">
<stop stop-color="#A1AA8B"/>
<stop offset="1" stop-color="#E3DFC4"/>
</linearGradient>
</defs>
</svg>
