<svg width="61" height="42" viewBox="0 0 61 42" fill="none" xmlns="http://www.w3.org/2000/svg">
<path d="M49.9146 0H11.0854C8.14737 0.006511 5.33124 1.16281 3.25376 3.21592C1.17627 5.26903 0.00658829 8.05179 0 10.9553V31.0447C0.00658829 33.9482 1.17627 36.7309 3.25376 38.784C5.33124 40.8372 8.14737 41.9935 11.0854 42H49.9146C52.8526 41.9935 55.6681 40.8372 57.7456 38.784C59.823 36.7309 60.9934 33.9482 61 31.0447V10.9553C60.9934 8.05179 59.823 5.26903 57.7456 3.21592C55.6681 1.16281 52.8526 0.006511 49.9146 0ZM32.2142 26.9337L22.7526 32.7181V9.58044L32.2142 15.3648L41.675 21.1493L32.2142 26.9337Z" fill="url(#paint0_linear_303_4454)"/>
<defs>
<linearGradient id="paint0_linear_303_4454" x1="30.5" y1="0" x2="30.5" y2="42" gradientUnits="userSpaceOnUse">
<stop stop-color="#A1AA8B"/>
<stop offset="1" stop-color="#E3DFC4"/>
</linearGradient>
</defs>
</svg>
